<mxfile host="Electron" modified="2023-11-22T08:34:28.016Z" agent="Mozilla/5.0 (Windows NT 10.0; Win64; x64) AppleWebKit/537.36 (KHTML, like Gecko) draw.io/22.1.2 Chrome/114.0.5735.289 Electron/25.9.4 Safari/537.36" etag="ci6HPxkdanhVdm5YZFo8" version="22.1.2" type="device">
  <diagram name="Page-1" id="QESwdmf1bgdbXTSIDAnY">
    <mxGraphModel dx="3240" dy="2573" grid="1" gridSize="10" guides="1" tooltips="1" connect="1" arrows="1" fold="1" page="1" pageScale="1" pageWidth="850" pageHeight="1100" math="0" shadow="0">
      <root>
        <mxCell id="0" />
        <mxCell id="1" parent="0" />
        <mxCell id="iuZi7yTrfUwkzmVdjOtF-5" value="&lt;font style=&quot;font-size: 20px;&quot;&gt;IDLE&lt;/font&gt;" style="ellipse;whiteSpace=wrap;html=1;fontStyle=1" parent="1" vertex="1">
          <mxGeometry x="260" y="50" width="240" height="180" as="geometry" />
        </mxCell>
        <mxCell id="iuZi7yTrfUwkzmVdjOtF-10" value="&lt;font style=&quot;font-size: 20px;&quot;&gt;RECORD&lt;/font&gt;" style="ellipse;whiteSpace=wrap;html=1;fontStyle=1" parent="1" vertex="1">
          <mxGeometry x="-170" y="310" width="250" height="180" as="geometry" />
        </mxCell>
        <mxCell id="iuZi7yTrfUwkzmVdjOtF-11" value="&lt;font style=&quot;font-size: 20px;&quot;&gt;INTER&lt;br&gt;(reinitializare)&lt;br&gt;&lt;/font&gt;" style="ellipse;whiteSpace=wrap;html=1;fontStyle=1" parent="1" vertex="1">
          <mxGeometry x="260" y="600" width="270" height="180" as="geometry" />
        </mxCell>
        <mxCell id="iuZi7yTrfUwkzmVdjOtF-12" value="&lt;font style=&quot;font-size: 20px;&quot;&gt;PLAYBACK&lt;/font&gt;" style="ellipse;whiteSpace=wrap;html=1;fontStyle=1" parent="1" vertex="1">
          <mxGeometry x="690" y="310" width="240" height="190" as="geometry" />
        </mxCell>
        <mxCell id="iuZi7yTrfUwkzmVdjOtF-13" value="" style="endArrow=classic;html=1;exitX=0;exitY=0.5;exitDx=0;exitDy=0;curved=1;strokeWidth=4;entryX=0.5;entryY=0;entryDx=0;entryDy=0;fontStyle=1" parent="1" source="iuZi7yTrfUwkzmVdjOtF-5" target="iuZi7yTrfUwkzmVdjOtF-10" edge="1">
          <mxGeometry width="50" height="50" relative="1" as="geometry">
            <mxPoint x="296.3603896932109" y="123.89087296526009" as="sourcePoint" />
            <mxPoint x="-50" y="240" as="targetPoint" />
            <Array as="points">
              <mxPoint x="20" y="120" />
            </Array>
          </mxGeometry>
        </mxCell>
        <mxCell id="iuZi7yTrfUwkzmVdjOtF-17" value="" style="endArrow=classic;html=1;exitX=0.5;exitY=1;exitDx=0;exitDy=0;entryX=0;entryY=0.5;entryDx=0;entryDy=0;curved=1;strokeWidth=4;fontStyle=1" parent="1" source="iuZi7yTrfUwkzmVdjOtF-10" target="iuZi7yTrfUwkzmVdjOtF-11" edge="1">
          <mxGeometry width="50" height="50" relative="1" as="geometry">
            <mxPoint x="352" y="454" as="sourcePoint" />
            <mxPoint x="40" y="616" as="targetPoint" />
            <Array as="points">
              <mxPoint x="-40" y="590" />
            </Array>
          </mxGeometry>
        </mxCell>
        <mxCell id="iuZi7yTrfUwkzmVdjOtF-18" value="" style="endArrow=classic;html=1;exitX=1;exitY=0.5;exitDx=0;exitDy=0;entryX=0.5;entryY=1;entryDx=0;entryDy=0;curved=1;strokeWidth=4;fontStyle=1" parent="1" source="iuZi7yTrfUwkzmVdjOtF-11" target="iuZi7yTrfUwkzmVdjOtF-12" edge="1">
          <mxGeometry width="50" height="50" relative="1" as="geometry">
            <mxPoint x="590" y="408" as="sourcePoint" />
            <mxPoint x="880" y="693" as="targetPoint" />
            <Array as="points">
              <mxPoint x="770" y="650" />
            </Array>
          </mxGeometry>
        </mxCell>
        <mxCell id="iuZi7yTrfUwkzmVdjOtF-19" value="" style="endArrow=classic;html=1;exitX=0.5;exitY=0;exitDx=0;exitDy=0;entryX=1;entryY=0.5;entryDx=0;entryDy=0;curved=1;strokeWidth=4;fontStyle=1" parent="1" source="iuZi7yTrfUwkzmVdjOtF-12" target="iuZi7yTrfUwkzmVdjOtF-5" edge="1">
          <mxGeometry width="50" height="50" relative="1" as="geometry">
            <mxPoint x="360" y="370" as="sourcePoint" />
            <mxPoint x="730" y="135" as="targetPoint" />
            <Array as="points">
              <mxPoint x="730" y="150" />
            </Array>
          </mxGeometry>
        </mxCell>
        <mxCell id="iuZi7yTrfUwkzmVdjOtF-21" value="&lt;font style=&quot;font-size: 24px;&quot;&gt;Rec_Start = 1&lt;/font&gt;" style="text;html=1;strokeColor=none;fillColor=none;align=center;verticalAlign=middle;whiteSpace=wrap;rounded=0;fontStyle=1" parent="1" vertex="1">
          <mxGeometry x="-100" y="115" width="190" height="55" as="geometry" />
        </mxCell>
        <mxCell id="iuZi7yTrfUwkzmVdjOtF-22" value="&lt;font style=&quot;font-size: 20px;&quot;&gt;cntRecSamples = NR_REC_SAMPLES&lt;/font&gt;" style="text;html=1;strokeColor=none;fillColor=none;align=center;verticalAlign=middle;whiteSpace=wrap;rounded=0;fontStyle=1" parent="1" vertex="1">
          <mxGeometry x="-120" y="620" width="230" height="80" as="geometry" />
        </mxCell>
        <mxCell id="iuZi7yTrfUwkzmVdjOtF-23" value="&lt;font style=&quot;font-size: 20px;&quot;&gt;cntPlaySamples = NR_PLAY_SAMPLES&lt;/font&gt;" style="text;html=1;strokeColor=none;fillColor=none;align=center;verticalAlign=middle;whiteSpace=wrap;rounded=0;fontStyle=1" parent="1" vertex="1">
          <mxGeometry x="710" y="130" width="230" height="80" as="geometry" />
        </mxCell>
        <mxCell id="iuZi7yTrfUwkzmVdjOtF-24" value="&lt;ul style=&quot;font-size: 24px;&quot;&gt;&lt;li style=&quot;text-align: left;&quot;&gt;&lt;font style=&quot;font-size: 24px;&quot;&gt;&lt;font style=&quot;font-size: 24px;&quot;&gt;&lt;b style=&quot;&quot;&gt;Enable Deserializer&lt;/b&gt;&lt;/font&gt;&lt;b style=&quot;background-color: initial;&quot;&gt;&amp;nbsp;&lt;/b&gt;&lt;/font&gt;&lt;/li&gt;&lt;li style=&quot;text-align: left;&quot;&gt;&lt;b&gt;Enable Leds Loading&lt;/b&gt;&lt;/li&gt;&lt;li style=&quot;text-align: left;&quot;&gt;&lt;b&gt;Set the address rec&lt;/b&gt;&lt;/li&gt;&lt;/ul&gt;&lt;font style=&quot;&quot;&gt;&lt;div style=&quot;text-align: left; font-size: 24px;&quot;&gt;&lt;b&gt;&lt;br&gt;&lt;/b&gt;&lt;/div&gt;&lt;/font&gt;" style="whiteSpace=wrap;html=1;aspect=fixed;" parent="1" vertex="1">
          <mxGeometry x="-550" y="570" width="330" height="330" as="geometry" />
        </mxCell>
        <mxCell id="iuZi7yTrfUwkzmVdjOtF-25" value="&lt;ul style=&quot;font-size: 24px;&quot;&gt;&lt;li style=&quot;text-align: left;&quot;&gt;&lt;b&gt;Reset address&lt;/b&gt;&lt;/li&gt;&lt;li style=&quot;text-align: left;&quot;&gt;&lt;b&gt;Reset all control signals&lt;/b&gt;&lt;/li&gt;&lt;/ul&gt;" style="whiteSpace=wrap;html=1;aspect=fixed;" parent="1" vertex="1">
          <mxGeometry x="550" y="720" width="280" height="280" as="geometry" />
        </mxCell>
        <mxCell id="iuZi7yTrfUwkzmVdjOtF-26" value="&lt;ul style=&quot;font-size: 24px;&quot;&gt;&lt;li style=&quot;text-align: left;&quot;&gt;&lt;font style=&quot;font-size: 24px;&quot;&gt;&lt;font style=&quot;font-size: 24px;&quot;&gt;&lt;b style=&quot;&quot;&gt;Enable Serializer&lt;/b&gt;&lt;/font&gt;&lt;b style=&quot;background-color: initial;&quot;&gt;&amp;nbsp;&lt;/b&gt;&lt;/font&gt;&lt;/li&gt;&lt;li style=&quot;text-align: left;&quot;&gt;&lt;b&gt;Enable Leds Loading&lt;/b&gt;&lt;/li&gt;&lt;li style=&quot;text-align: left;&quot;&gt;&lt;b&gt;Set the address play&lt;/b&gt;&lt;/li&gt;&lt;/ul&gt;&lt;font style=&quot;&quot;&gt;&lt;div style=&quot;text-align: left; font-size: 24px;&quot;&gt;&lt;b&gt;&lt;br&gt;&lt;/b&gt;&lt;/div&gt;&lt;/font&gt;" style="whiteSpace=wrap;html=1;aspect=fixed;" parent="1" vertex="1">
          <mxGeometry x="1090" y="-40" width="330" height="330" as="geometry" />
        </mxCell>
        <mxCell id="iuZi7yTrfUwkzmVdjOtF-27" value="" style="endArrow=classic;html=1;curved=1;strokeWidth=4;fontStyle=1" parent="1" edge="1">
          <mxGeometry width="50" height="50" relative="1" as="geometry">
            <mxPoint x="810" y="-60" as="sourcePoint" />
            <mxPoint x="510" y="130" as="targetPoint" />
            <Array as="points">
              <mxPoint x="800" y="-60" />
            </Array>
          </mxGeometry>
        </mxCell>
        <mxCell id="iuZi7yTrfUwkzmVdjOtF-28" value="&lt;font style=&quot;font-size: 25px;&quot;&gt;RST = 1&lt;/font&gt;" style="text;html=1;strokeColor=none;fillColor=none;align=center;verticalAlign=middle;whiteSpace=wrap;rounded=0;fontStyle=1" parent="1" vertex="1">
          <mxGeometry x="570" y="-62.5" width="160" height="65" as="geometry" />
        </mxCell>
        <mxCell id="iuZi7yTrfUwkzmVdjOtF-33" value="&lt;font style=&quot;font-size: 24px;&quot;&gt;Rec_Start = 0&lt;/font&gt;" style="text;html=1;strokeColor=none;fillColor=none;align=center;verticalAlign=middle;whiteSpace=wrap;rounded=0;fontStyle=1" parent="1" vertex="1">
          <mxGeometry x="280" y="-57.5" width="170" height="60" as="geometry" />
        </mxCell>
        <mxCell id="iuZi7yTrfUwkzmVdjOtF-34" value="" style="endArrow=classic;html=1;exitX=0.5;exitY=0;exitDx=0;exitDy=0;entryX=0.5;entryY=1;entryDx=0;entryDy=0;curved=1;strokeWidth=4;fontStyle=1;" parent="1" source="iuZi7yTrfUwkzmVdjOtF-10" target="iuZi7yTrfUwkzmVdjOtF-10" edge="1">
          <mxGeometry width="50" height="50" relative="1" as="geometry">
            <mxPoint x="-418" y="422" as="sourcePoint" />
            <mxPoint x="-235" y="422" as="targetPoint" />
            <Array as="points">
              <mxPoint x="-310" y="280" />
              <mxPoint x="-400" y="480" />
              <mxPoint x="-200" y="560" />
            </Array>
          </mxGeometry>
        </mxCell>
        <mxCell id="iuZi7yTrfUwkzmVdjOtF-35" value="&lt;font style=&quot;font-size: 20px;&quot;&gt;cntRecSamples &amp;lt; NR_REC_SAMPLES&lt;/font&gt;" style="text;html=1;strokeColor=none;fillColor=none;align=center;verticalAlign=middle;whiteSpace=wrap;rounded=0;fontStyle=1" parent="1" vertex="1">
          <mxGeometry x="-330" y="410" width="150" height="50" as="geometry" />
        </mxCell>
        <mxCell id="iuZi7yTrfUwkzmVdjOtF-36" value="" style="endArrow=classic;html=1;exitX=0.5;exitY=1;exitDx=0;exitDy=0;entryX=0.5;entryY=0;entryDx=0;entryDy=0;curved=1;strokeWidth=4;fontStyle=1;" parent="1" source="iuZi7yTrfUwkzmVdjOtF-12" target="iuZi7yTrfUwkzmVdjOtF-12" edge="1">
          <mxGeometry width="50" height="50" relative="1" as="geometry">
            <mxPoint x="1385" y="480" as="sourcePoint" />
            <mxPoint x="1385" y="660" as="targetPoint" />
            <Array as="points">
              <mxPoint x="1010" y="580" />
              <mxPoint x="1190" y="420" />
              <mxPoint x="1110" y="300" />
            </Array>
          </mxGeometry>
        </mxCell>
        <mxCell id="iuZi7yTrfUwkzmVdjOtF-38" value="&lt;font style=&quot;font-size: 20px;&quot;&gt;cntPlaySamples &amp;lt; NR_PLAY_SAMPLES&lt;/font&gt;" style="text;html=1;strokeColor=none;fillColor=none;align=center;verticalAlign=middle;whiteSpace=wrap;rounded=0;fontStyle=1" parent="1" vertex="1">
          <mxGeometry x="920" y="380" width="230" height="80" as="geometry" />
        </mxCell>
        <mxCell id="iuZi7yTrfUwkzmVdjOtF-39" value="" style="endArrow=classic;html=1;exitX=1;exitY=0.5;exitDx=0;exitDy=0;entryX=0;entryY=0.5;entryDx=0;entryDy=0;curved=1;strokeWidth=4;fontStyle=1;" parent="1" source="iuZi7yTrfUwkzmVdjOtF-5" target="iuZi7yTrfUwkzmVdjOtF-5" edge="1">
          <mxGeometry width="50" height="50" relative="1" as="geometry">
            <mxPoint x="355" y="-40" as="sourcePoint" />
            <mxPoint x="355" y="140" as="targetPoint" />
            <Array as="points">
              <mxPoint x="590" y="-120" />
              <mxPoint x="220" y="-150" />
              <mxPoint x="180" y="110" />
            </Array>
          </mxGeometry>
        </mxCell>
        <mxCell id="iuZi7yTrfUwkzmVdjOtF-40" value="&lt;ul style=&quot;font-size: 24px;&quot;&gt;&lt;li style=&quot;text-align: left;&quot;&gt;&lt;b&gt;RESET EVERYTHING&lt;/b&gt;&lt;/li&gt;&lt;li style=&quot;text-align: left;&quot;&gt;&lt;b&gt;wait for Rec_Start&lt;/b&gt;&lt;/li&gt;&lt;/ul&gt;" style="whiteSpace=wrap;html=1;aspect=fixed;" parent="1" vertex="1">
          <mxGeometry x="-120" y="-250" width="280" height="280" as="geometry" />
        </mxCell>
        <mxCell id="RhUAgrtXPY8pOuM0kqPS-1" value="&lt;font style=&quot;font-size: 20px;&quot;&gt;IDLE&lt;/font&gt;" style="ellipse;whiteSpace=wrap;html=1;fontStyle=1" vertex="1" parent="1">
          <mxGeometry x="3530" y="-230" width="240" height="180" as="geometry" />
        </mxCell>
        <mxCell id="RhUAgrtXPY8pOuM0kqPS-2" value="&lt;font style=&quot;font-size: 20px;&quot;&gt;Preset&lt;/font&gt;" style="ellipse;whiteSpace=wrap;html=1;fontStyle=1" vertex="1" parent="1">
          <mxGeometry x="2770" y="10" width="250" height="180" as="geometry" />
        </mxCell>
        <mxCell id="RhUAgrtXPY8pOuM0kqPS-3" value="&lt;font style=&quot;font-size: 20px;&quot;&gt;SEND DATA&lt;br&gt;&lt;/font&gt;" style="ellipse;whiteSpace=wrap;html=1;fontStyle=1" vertex="1" parent="1">
          <mxGeometry x="2920" y="550" width="270" height="180" as="geometry" />
        </mxCell>
        <mxCell id="RhUAgrtXPY8pOuM0kqPS-4" value="&lt;font style=&quot;font-size: 20px;&quot;&gt;SET CMD RD&lt;/font&gt;" style="ellipse;whiteSpace=wrap;html=1;fontStyle=1" vertex="1" parent="1">
          <mxGeometry x="3365" y="250" width="240" height="190" as="geometry" />
        </mxCell>
        <mxCell id="RhUAgrtXPY8pOuM0kqPS-5" value="" style="endArrow=classic;html=1;exitX=0;exitY=0.5;exitDx=0;exitDy=0;curved=1;strokeWidth=4;entryX=0.5;entryY=0;entryDx=0;entryDy=0;fontStyle=1" edge="1" parent="1" source="RhUAgrtXPY8pOuM0kqPS-1" target="RhUAgrtXPY8pOuM0kqPS-2">
          <mxGeometry width="50" height="50" relative="1" as="geometry">
            <mxPoint x="3476.360389693211" y="-126.10912703473991" as="sourcePoint" />
            <mxPoint x="3130" y="-10" as="targetPoint" />
            <Array as="points">
              <mxPoint x="3100" y="-140" />
            </Array>
          </mxGeometry>
        </mxCell>
        <mxCell id="RhUAgrtXPY8pOuM0kqPS-6" value="" style="endArrow=classic;html=1;exitX=0;exitY=1;exitDx=0;exitDy=0;entryX=0;entryY=0;entryDx=0;entryDy=0;curved=1;strokeWidth=4;fontStyle=1" edge="1" parent="1" source="RhUAgrtXPY8pOuM0kqPS-2" target="RhUAgrtXPY8pOuM0kqPS-3">
          <mxGeometry width="50" height="50" relative="1" as="geometry">
            <mxPoint x="2965" y="460" as="sourcePoint" />
            <mxPoint x="3050" y="586" as="targetPoint" />
            <Array as="points">
              <mxPoint x="2710" y="370" />
            </Array>
          </mxGeometry>
        </mxCell>
        <mxCell id="RhUAgrtXPY8pOuM0kqPS-7" value="&lt;font style=&quot;font-size: 26px;&quot;&gt;ram_cen = 0&lt;br&gt;calib_complete = 1&lt;br&gt;&lt;/font&gt;" style="text;html=1;strokeColor=none;fillColor=none;align=center;verticalAlign=middle;whiteSpace=wrap;rounded=0;fontStyle=1" vertex="1" parent="1">
          <mxGeometry x="3090" y="-230" width="270" height="80" as="geometry" />
        </mxCell>
        <mxCell id="RhUAgrtXPY8pOuM0kqPS-8" value="&lt;span style=&quot;font-size: 20px;&quot;&gt;WAIT CEN&lt;/span&gt;" style="ellipse;whiteSpace=wrap;html=1;fontStyle=1" vertex="1" parent="1">
          <mxGeometry x="4170" y="260" width="240" height="190" as="geometry" />
        </mxCell>
        <mxCell id="RhUAgrtXPY8pOuM0kqPS-9" value="&lt;font style=&quot;font-size: 20px;&quot;&gt;SET CMD WR&lt;/font&gt;" style="ellipse;whiteSpace=wrap;html=1;fontStyle=1" vertex="1" parent="1">
          <mxGeometry x="3930" y="600" width="240" height="190" as="geometry" />
        </mxCell>
        <mxCell id="RhUAgrtXPY8pOuM0kqPS-10" value="" style="endArrow=classic;html=1;exitX=1;exitY=0.5;exitDx=0;exitDy=0;curved=1;strokeWidth=4;entryX=0;entryY=0.5;entryDx=0;entryDy=0;fontStyle=1" edge="1" parent="1" source="RhUAgrtXPY8pOuM0kqPS-4" target="RhUAgrtXPY8pOuM0kqPS-8">
          <mxGeometry width="50" height="50" relative="1" as="geometry">
            <mxPoint x="3985" y="550" as="sourcePoint" />
            <mxPoint x="3530" y="680" as="targetPoint" />
            <Array as="points">
              <mxPoint x="3760" y="460" />
            </Array>
          </mxGeometry>
        </mxCell>
        <mxCell id="RhUAgrtXPY8pOuM0kqPS-11" value="" style="endArrow=classic;html=1;exitX=1;exitY=0.5;exitDx=0;exitDy=0;curved=1;strokeWidth=4;entryX=0.5;entryY=1;entryDx=0;entryDy=0;fontStyle=1" edge="1" parent="1" source="RhUAgrtXPY8pOuM0kqPS-9" target="RhUAgrtXPY8pOuM0kqPS-8">
          <mxGeometry width="50" height="50" relative="1" as="geometry">
            <mxPoint x="4040" y="570" as="sourcePoint" />
            <mxPoint x="4510" y="500" as="targetPoint" />
            <Array as="points">
              <mxPoint x="4300" y="580" />
            </Array>
          </mxGeometry>
        </mxCell>
        <mxCell id="RhUAgrtXPY8pOuM0kqPS-12" value="" style="endArrow=classic;html=1;exitX=0.5;exitY=0;exitDx=0;exitDy=0;curved=1;strokeWidth=4;entryX=1;entryY=0.5;entryDx=0;entryDy=0;fontStyle=1" edge="1" parent="1" source="RhUAgrtXPY8pOuM0kqPS-8" target="RhUAgrtXPY8pOuM0kqPS-1">
          <mxGeometry width="50" height="50" relative="1" as="geometry">
            <mxPoint x="4090" y="310" as="sourcePoint" />
            <mxPoint x="4265.172406616595" y="1.9211766273247122" as="targetPoint" />
            <Array as="points">
              <mxPoint x="4250" y="150" />
            </Array>
          </mxGeometry>
        </mxCell>
        <mxCell id="RhUAgrtXPY8pOuM0kqPS-13" value="&lt;font style=&quot;font-size: 26px;&quot;&gt;mem_ui_rst = 0&lt;/font&gt;" style="text;html=1;strokeColor=none;fillColor=none;align=center;verticalAlign=middle;whiteSpace=wrap;rounded=0;fontStyle=1" vertex="1" parent="1">
          <mxGeometry x="3800" y="-340" width="230" height="80" as="geometry" />
        </mxCell>
        <mxCell id="RhUAgrtXPY8pOuM0kqPS-14" value="&lt;font style=&quot;font-size: 23px;&quot;&gt;ram_cen = 1&lt;/font&gt;" style="text;html=1;strokeColor=none;fillColor=none;align=center;verticalAlign=middle;whiteSpace=wrap;rounded=0;fontStyle=1" vertex="1" parent="1">
          <mxGeometry x="4010" y="-50" width="230" height="80" as="geometry" />
        </mxCell>
        <mxCell id="RhUAgrtXPY8pOuM0kqPS-15" value="&lt;font style=&quot;font-size: 26px;&quot;&gt;ram_wen = 0&lt;br&gt;&lt;/font&gt;" style="text;html=1;strokeColor=none;fillColor=none;align=center;verticalAlign=middle;whiteSpace=wrap;rounded=0;fontStyle=1" vertex="1" parent="1">
          <mxGeometry x="2560" y="380" width="270" height="80" as="geometry" />
        </mxCell>
        <mxCell id="RhUAgrtXPY8pOuM0kqPS-16" value="" style="endArrow=classic;html=1;exitX=1;exitY=1;exitDx=0;exitDy=0;entryX=0;entryY=0;entryDx=0;entryDy=0;curved=1;strokeWidth=4;fontStyle=1" edge="1" parent="1" source="RhUAgrtXPY8pOuM0kqPS-2" target="RhUAgrtXPY8pOuM0kqPS-4">
          <mxGeometry width="50" height="50" relative="1" as="geometry">
            <mxPoint x="3061" y="230" as="sourcePoint" />
            <mxPoint x="2744" y="572" as="targetPoint" />
            <Array as="points">
              <mxPoint x="2970" y="330" />
            </Array>
          </mxGeometry>
        </mxCell>
        <mxCell id="RhUAgrtXPY8pOuM0kqPS-17" value="&lt;font style=&quot;font-size: 26px;&quot;&gt;ram_oen = 0&lt;br&gt;&lt;/font&gt;" style="text;html=1;strokeColor=none;fillColor=none;align=center;verticalAlign=middle;whiteSpace=wrap;rounded=0;fontStyle=1" vertex="1" parent="1">
          <mxGeometry x="3010" y="180" width="270" height="80" as="geometry" />
        </mxCell>
        <mxCell id="RhUAgrtXPY8pOuM0kqPS-18" value="" style="endArrow=classic;html=1;exitX=1;exitY=1;exitDx=0;exitDy=0;entryX=0;entryY=1;entryDx=0;entryDy=0;curved=1;strokeWidth=4;fontStyle=1" edge="1" parent="1" source="RhUAgrtXPY8pOuM0kqPS-3" target="RhUAgrtXPY8pOuM0kqPS-9">
          <mxGeometry width="50" height="50" relative="1" as="geometry">
            <mxPoint x="3437" y="570" as="sourcePoint" />
            <mxPoint x="3590" y="982" as="targetPoint" />
            <Array as="points">
              <mxPoint x="3340" y="776" />
            </Array>
          </mxGeometry>
        </mxCell>
        <mxCell id="RhUAgrtXPY8pOuM0kqPS-19" value="&lt;font style=&quot;font-size: 26px;&quot;&gt;mem_wdf_rdy = 1&lt;br&gt;&lt;/font&gt;" style="text;html=1;strokeColor=none;fillColor=none;align=center;verticalAlign=middle;whiteSpace=wrap;rounded=0;fontStyle=1" vertex="1" parent="1">
          <mxGeometry x="3400" y="670" width="270" height="80" as="geometry" />
        </mxCell>
        <mxCell id="RhUAgrtXPY8pOuM0kqPS-20" value="&lt;font style=&quot;font-size: 26px;&quot;&gt;mem_rdy=1&lt;br&gt;&lt;/font&gt;" style="text;html=1;strokeColor=none;fillColor=none;align=center;verticalAlign=middle;whiteSpace=wrap;rounded=0;fontStyle=1" vertex="1" parent="1">
          <mxGeometry x="3700" y="315" width="270" height="80" as="geometry" />
        </mxCell>
        <mxCell id="RhUAgrtXPY8pOuM0kqPS-21" value="&lt;font style=&quot;font-size: 26px;&quot;&gt;mem_rdy=1&lt;br&gt;&lt;/font&gt;" style="text;html=1;strokeColor=none;fillColor=none;align=center;verticalAlign=middle;whiteSpace=wrap;rounded=0;fontStyle=1" vertex="1" parent="1">
          <mxGeometry x="4030" y="510" width="270" height="80" as="geometry" />
        </mxCell>
        <mxCell id="RhUAgrtXPY8pOuM0kqPS-22" value="" style="endArrow=classic;html=1;curved=1;strokeWidth=4;entryX=1;entryY=0;entryDx=0;entryDy=0;fontStyle=1" edge="1" parent="1" target="RhUAgrtXPY8pOuM0kqPS-1">
          <mxGeometry width="50" height="50" relative="1" as="geometry">
            <mxPoint x="4040" y="-300" as="sourcePoint" />
            <mxPoint x="3800" y="-240" as="targetPoint" />
            <Array as="points">
              <mxPoint x="4040" y="-290" />
            </Array>
          </mxGeometry>
        </mxCell>
        <mxCell id="RhUAgrtXPY8pOuM0kqPS-23" value="&lt;font style=&quot;font-size: 20px;&quot;&gt;IDLE&lt;/font&gt;" style="ellipse;whiteSpace=wrap;html=1;fontStyle=1" vertex="1" parent="1">
          <mxGeometry x="1590" y="1500" width="240" height="180" as="geometry" />
        </mxCell>
        <mxCell id="RhUAgrtXPY8pOuM0kqPS-24" value="&lt;font style=&quot;font-size: 20px;&quot;&gt;AssertCen&lt;/font&gt;" style="ellipse;whiteSpace=wrap;html=1;fontStyle=1" vertex="1" parent="1">
          <mxGeometry x="1070" y="1760" width="250" height="180" as="geometry" />
        </mxCell>
        <mxCell id="RhUAgrtXPY8pOuM0kqPS-25" value="&lt;font style=&quot;font-size: 20px;&quot;&gt;AssertOenWen&lt;br&gt;&lt;/font&gt;" style="ellipse;whiteSpace=wrap;html=1;fontStyle=1" vertex="1" parent="1">
          <mxGeometry x="1055" y="2220" width="270" height="180" as="geometry" />
        </mxCell>
        <mxCell id="RhUAgrtXPY8pOuM0kqPS-26" value="&lt;font style=&quot;font-size: 20px;&quot;&gt;Waitt&lt;/font&gt;" style="ellipse;whiteSpace=wrap;html=1;fontStyle=1" vertex="1" parent="1">
          <mxGeometry x="1620" y="2470" width="240" height="190" as="geometry" />
        </mxCell>
        <mxCell id="RhUAgrtXPY8pOuM0kqPS-27" value="" style="endArrow=classic;html=1;exitX=0;exitY=0.5;exitDx=0;exitDy=0;curved=1;strokeWidth=4;entryX=0.5;entryY=0;entryDx=0;entryDy=0;fontStyle=1" edge="1" parent="1" source="RhUAgrtXPY8pOuM0kqPS-23" target="RhUAgrtXPY8pOuM0kqPS-24">
          <mxGeometry width="50" height="50" relative="1" as="geometry">
            <mxPoint x="1776.360389693211" y="1623.89087296526" as="sourcePoint" />
            <mxPoint x="1430" y="1740" as="targetPoint" />
            <Array as="points">
              <mxPoint x="1400" y="1610" />
            </Array>
          </mxGeometry>
        </mxCell>
        <mxCell id="RhUAgrtXPY8pOuM0kqPS-28" value="" style="endArrow=classic;html=1;exitX=0;exitY=1;exitDx=0;exitDy=0;entryX=0;entryY=0;entryDx=0;entryDy=0;curved=1;strokeWidth=4;fontStyle=1" edge="1" parent="1" source="RhUAgrtXPY8pOuM0kqPS-24" target="RhUAgrtXPY8pOuM0kqPS-25">
          <mxGeometry width="50" height="50" relative="1" as="geometry">
            <mxPoint x="1265" y="2210" as="sourcePoint" />
            <mxPoint x="1350" y="2336" as="targetPoint" />
            <Array as="points">
              <mxPoint x="1010" y="2120" />
            </Array>
          </mxGeometry>
        </mxCell>
        <mxCell id="RhUAgrtXPY8pOuM0kqPS-29" value="" style="endArrow=classic;html=1;exitX=0.5;exitY=1;exitDx=0;exitDy=0;entryX=0;entryY=0.5;entryDx=0;entryDy=0;curved=1;strokeWidth=4;fontStyle=1" edge="1" parent="1" source="RhUAgrtXPY8pOuM0kqPS-25" target="RhUAgrtXPY8pOuM0kqPS-26">
          <mxGeometry width="50" height="50" relative="1" as="geometry">
            <mxPoint x="1900" y="2128" as="sourcePoint" />
            <mxPoint x="2190" y="2413" as="targetPoint" />
            <Array as="points">
              <mxPoint x="1410" y="2520" />
            </Array>
          </mxGeometry>
        </mxCell>
        <mxCell id="RhUAgrtXPY8pOuM0kqPS-30" value="&lt;font style=&quot;font-size: 26px;&quot;&gt;cs_i = 1&lt;/font&gt;" style="text;html=1;strokeColor=none;fillColor=none;align=center;verticalAlign=middle;whiteSpace=wrap;rounded=0;fontStyle=1" vertex="1" parent="1">
          <mxGeometry x="1340" y="1650" width="230" height="80" as="geometry" />
        </mxCell>
        <mxCell id="RhUAgrtXPY8pOuM0kqPS-31" value="&lt;span style=&quot;font-size: 20px;&quot;&gt;SendData&lt;/span&gt;" style="ellipse;whiteSpace=wrap;html=1;fontStyle=1" vertex="1" parent="1">
          <mxGeometry x="2470" y="2010" width="240" height="190" as="geometry" />
        </mxCell>
        <mxCell id="RhUAgrtXPY8pOuM0kqPS-32" value="&lt;font style=&quot;font-size: 20px;&quot;&gt;Deassert&lt;/font&gt;" style="ellipse;whiteSpace=wrap;html=1;fontStyle=1" vertex="1" parent="1">
          <mxGeometry x="2230" y="2350" width="240" height="190" as="geometry" />
        </mxCell>
        <mxCell id="RhUAgrtXPY8pOuM0kqPS-33" value="&lt;font style=&quot;font-size: 20px;&quot;&gt;Ack&lt;/font&gt;" style="ellipse;whiteSpace=wrap;html=1;fontStyle=1" vertex="1" parent="1">
          <mxGeometry x="2320" y="1680" width="240" height="190" as="geometry" />
        </mxCell>
        <mxCell id="RhUAgrtXPY8pOuM0kqPS-34" value="" style="endArrow=classic;html=1;exitX=1;exitY=0.5;exitDx=0;exitDy=0;curved=1;strokeWidth=4;entryX=0;entryY=1;entryDx=0;entryDy=0;fontStyle=1" edge="1" parent="1" source="RhUAgrtXPY8pOuM0kqPS-26" target="RhUAgrtXPY8pOuM0kqPS-32">
          <mxGeometry width="50" height="50" relative="1" as="geometry">
            <mxPoint x="2285" y="2300" as="sourcePoint" />
            <mxPoint x="1830" y="2430" as="targetPoint" />
            <Array as="points">
              <mxPoint x="2100" y="2590" />
            </Array>
          </mxGeometry>
        </mxCell>
        <mxCell id="RhUAgrtXPY8pOuM0kqPS-35" value="" style="endArrow=classic;html=1;exitX=1;exitY=0.5;exitDx=0;exitDy=0;curved=1;strokeWidth=4;entryX=0.5;entryY=1;entryDx=0;entryDy=0;fontStyle=1" edge="1" parent="1" source="RhUAgrtXPY8pOuM0kqPS-32" target="RhUAgrtXPY8pOuM0kqPS-31">
          <mxGeometry width="50" height="50" relative="1" as="geometry">
            <mxPoint x="2340" y="2320" as="sourcePoint" />
            <mxPoint x="2810" y="2250" as="targetPoint" />
            <Array as="points">
              <mxPoint x="2600" y="2330" />
            </Array>
          </mxGeometry>
        </mxCell>
        <mxCell id="RhUAgrtXPY8pOuM0kqPS-36" value="" style="endArrow=classic;html=1;exitX=0.5;exitY=0;exitDx=0;exitDy=0;curved=1;strokeWidth=4;entryX=1;entryY=1;entryDx=0;entryDy=0;fontStyle=1" edge="1" parent="1" source="RhUAgrtXPY8pOuM0kqPS-31" target="RhUAgrtXPY8pOuM0kqPS-33">
          <mxGeometry width="50" height="50" relative="1" as="geometry">
            <mxPoint x="2390" y="2060" as="sourcePoint" />
            <mxPoint x="2410" y="1830" as="targetPoint" />
            <Array as="points">
              <mxPoint x="2550" y="1900" />
            </Array>
          </mxGeometry>
        </mxCell>
        <mxCell id="RhUAgrtXPY8pOuM0kqPS-37" value="&lt;font style=&quot;font-size: 23px;&quot;&gt;CntCycleTime = C_RW_CYCLE_NS&lt;/font&gt;" style="text;html=1;strokeColor=none;fillColor=none;align=center;verticalAlign=middle;whiteSpace=wrap;rounded=0;fontStyle=1" vertex="1" parent="1">
          <mxGeometry x="1940" y="2470" width="230" height="80" as="geometry" />
        </mxCell>
        <mxCell id="RhUAgrtXPY8pOuM0kqPS-38" value="" style="endArrow=classic;html=1;exitX=0.09;exitY=0.853;exitDx=0;exitDy=0;entryX=1;entryY=1;entryDx=0;entryDy=0;curved=1;strokeWidth=4;fontStyle=1;exitPerimeter=0;" edge="1" parent="1" source="RhUAgrtXPY8pOuM0kqPS-26" target="RhUAgrtXPY8pOuM0kqPS-26">
          <mxGeometry width="50" height="50" relative="1" as="geometry">
            <mxPoint x="1260" y="2730" as="sourcePoint" />
            <mxPoint x="1690" y="2895" as="targetPoint" />
            <Array as="points">
              <mxPoint x="1580" y="2750" />
              <mxPoint x="1710" y="2810" />
              <mxPoint x="1860" y="2770" />
            </Array>
          </mxGeometry>
        </mxCell>
        <mxCell id="RhUAgrtXPY8pOuM0kqPS-39" value="&lt;font style=&quot;font-size: 23px;&quot;&gt;CntCycleTime != C_RW_CYCLE_NS&lt;/font&gt;" style="text;html=1;strokeColor=none;fillColor=none;align=center;verticalAlign=middle;whiteSpace=wrap;rounded=0;fontStyle=1" vertex="1" parent="1">
          <mxGeometry x="1600" y="2820" width="230" height="80" as="geometry" />
        </mxCell>
        <mxCell id="RhUAgrtXPY8pOuM0kqPS-40" value="" style="endArrow=classic;html=1;exitX=1;exitY=0;exitDx=0;exitDy=0;curved=1;strokeWidth=4;entryX=0;entryY=0;entryDx=0;entryDy=0;fontStyle=1" edge="1" parent="1" source="RhUAgrtXPY8pOuM0kqPS-23" target="RhUAgrtXPY8pOuM0kqPS-23">
          <mxGeometry width="50" height="50" relative="1" as="geometry">
            <mxPoint x="2085" y="1510" as="sourcePoint" />
            <mxPoint x="1770" y="1462" as="targetPoint" />
            <Array as="points">
              <mxPoint x="1740" y="1220" />
            </Array>
          </mxGeometry>
        </mxCell>
        <mxCell id="RhUAgrtXPY8pOuM0kqPS-41" value="&lt;font style=&quot;font-size: 26px;&quot;&gt;cs_i = 0&lt;/font&gt;" style="text;html=1;strokeColor=none;fillColor=none;align=center;verticalAlign=middle;whiteSpace=wrap;rounded=0;fontStyle=1" vertex="1" parent="1">
          <mxGeometry x="1595" y="1420" width="230" height="80" as="geometry" />
        </mxCell>
        <mxCell id="RhUAgrtXPY8pOuM0kqPS-42" value="" style="endArrow=classic;html=1;exitX=0;exitY=0.5;exitDx=0;exitDy=0;curved=1;strokeWidth=4;entryX=1;entryY=0.5;entryDx=0;entryDy=0;fontStyle=1" edge="1" parent="1" source="RhUAgrtXPY8pOuM0kqPS-31" target="RhUAgrtXPY8pOuM0kqPS-24">
          <mxGeometry width="50" height="50" relative="1" as="geometry">
            <mxPoint x="2385" y="2118" as="sourcePoint" />
            <mxPoint x="2200" y="1890" as="targetPoint" />
            <Array as="points">
              <mxPoint x="1990" y="1880" />
            </Array>
          </mxGeometry>
        </mxCell>
        <mxCell id="RhUAgrtXPY8pOuM0kqPS-43" value="&lt;font style=&quot;font-size: 23px;&quot;&gt;TwoCycle = 1&lt;/font&gt;" style="text;html=1;strokeColor=none;fillColor=none;align=center;verticalAlign=middle;whiteSpace=wrap;rounded=0;fontStyle=1" vertex="1" parent="1">
          <mxGeometry x="1820" y="1820" width="230" height="80" as="geometry" />
        </mxCell>
        <mxCell id="RhUAgrtXPY8pOuM0kqPS-44" value="&lt;font style=&quot;font-size: 23px;&quot;&gt;TwoCycle = 0&lt;/font&gt;" style="text;html=1;strokeColor=none;fillColor=none;align=center;verticalAlign=middle;whiteSpace=wrap;rounded=0;fontStyle=1" vertex="1" parent="1">
          <mxGeometry x="2560" y="1880" width="230" height="80" as="geometry" />
        </mxCell>
        <mxCell id="RhUAgrtXPY8pOuM0kqPS-45" value="&lt;font style=&quot;font-size: 20px;&quot;&gt;DONE&lt;/font&gt;" style="ellipse;whiteSpace=wrap;html=1;fontStyle=1" vertex="1" parent="1">
          <mxGeometry x="2010" y="1560" width="210" height="170" as="geometry" />
        </mxCell>
        <mxCell id="RhUAgrtXPY8pOuM0kqPS-46" value="" style="endArrow=classic;html=1;exitX=0;exitY=0;exitDx=0;exitDy=0;curved=1;strokeWidth=4;entryX=1;entryY=0.5;entryDx=0;entryDy=0;fontStyle=1" edge="1" parent="1" source="RhUAgrtXPY8pOuM0kqPS-33" target="RhUAgrtXPY8pOuM0kqPS-45">
          <mxGeometry width="50" height="50" relative="1" as="geometry">
            <mxPoint x="2295" y="1818" as="sourcePoint" />
            <mxPoint x="2230" y="1650" as="targetPoint" />
            <Array as="points">
              <mxPoint x="2320" y="1640" />
            </Array>
          </mxGeometry>
        </mxCell>
        <mxCell id="RhUAgrtXPY8pOuM0kqPS-47" value="" style="endArrow=classic;html=1;exitX=0;exitY=0;exitDx=0;exitDy=0;curved=1;strokeWidth=4;entryX=1;entryY=0.5;entryDx=0;entryDy=0;fontStyle=1" edge="1" parent="1" source="RhUAgrtXPY8pOuM0kqPS-45" target="RhUAgrtXPY8pOuM0kqPS-23">
          <mxGeometry width="50" height="50" relative="1" as="geometry">
            <mxPoint x="1975" y="1661.5" as="sourcePoint" />
            <mxPoint x="1850" y="1568.5" as="targetPoint" />
            <Array as="points">
              <mxPoint x="1940" y="1550" />
            </Array>
          </mxGeometry>
        </mxCell>
      </root>
    </mxGraphModel>
  </diagram>
</mxfile>
